<svg width="21" height="20" viewBox="0 0 21 20" fill="none" xmlns="http://www.w3.org/2000/svg">
<path d="M16.795 11.9902C16.0392 11.8915 15.2972 11.7064 14.5838 11.4385C14.2674 11.3242 13.933 11.2675 13.5966 11.271C13.2433 11.2687 12.893 11.3364 12.566 11.4699C12.239 11.6035 11.9417 11.8005 11.6914 12.0493L11.1287 12.6011C9.63067 11.6103 8.35638 10.3184 7.38732 8.80795L7.91052 8.24638C8.27397 7.87942 8.52398 7.41588 8.63075 6.91103C8.73752 6.40618 8.69654 5.88133 8.51269 5.39909C8.24881 4.68225 8.06346 3.939 7.95988 3.18234C7.87371 2.54072 7.55691 1.95219 7.06842 1.52628C6.57993 1.10038 5.95304 0.866109 5.3044 0.867068H2.47123C2.11456 0.897927 1.76758 0.999144 1.4504 1.16485C1.13323 1.33056 0.852164 1.55746 0.623516 1.8324C0.394868 2.10733 0.223182 2.42484 0.118414 2.7665C0.0136451 3.10816 -0.0221215 3.46717 0.0131877 3.82273C0.31395 6.6334 1.27445 9.33371 2.81674 11.7045C4.21765 13.9133 6.09227 15.7842 8.30539 17.1823C10.6808 18.7234 13.3861 19.6853 16.2027 19.9902H16.4594C16.8143 19.991 17.1657 19.9208 17.493 19.7837C17.8202 19.6467 18.1166 19.4455 18.3646 19.1922C18.6165 18.9417 18.816 18.6437 18.9516 18.3156C19.0872 17.9875 19.1561 17.6358 19.1544 17.2809V14.7193C19.1649 14.0548 18.9304 13.4096 18.4954 12.9064C18.0604 12.4032 17.4552 12.0771 16.795 11.9902ZM6.06452 3.44835C6.18436 4.35059 6.40625 5.23637 6.72592 6.08874C6.77866 6.22204 6.79088 6.36789 6.76103 6.50807C6.73118 6.64825 6.6606 6.77655 6.5581 6.87692L5.46235 7.97052C5.31239 8.12253 5.21592 8.31901 5.18744 8.53043C5.15896 8.74185 5.2 8.95678 5.3044 9.14293C6.62662 11.4554 8.55027 13.3685 10.872 14.6799C11.0204 14.7614 11.1864 14.8053 11.3557 14.808C11.6147 14.8069 11.8629 14.7043 12.0468 14.5222L13.1425 13.4286C13.2849 13.2894 13.4763 13.2116 13.6756 13.2119C13.7665 13.214 13.8565 13.2306 13.9421 13.2612C14.7894 13.5801 15.6704 13.8016 16.568 13.9213C16.7564 13.9459 16.9284 14.0409 17.0494 14.1872C17.1703 14.3335 17.2311 14.5201 17.2195 14.7094V17.3006C17.2212 17.4036 17.2013 17.5059 17.1611 17.6008C17.1208 17.6957 17.0611 17.7811 16.9858 17.8517C16.9105 17.9222 16.8213 17.9762 16.7238 18.0102C16.6263 18.0443 16.5228 18.0576 16.4199 18.0493C13.907 17.7755 11.4932 16.9184 9.37153 15.5469C7.38874 14.301 5.70388 12.6363 4.43569 10.67C3.08185 8.54387 2.24358 6.13186 1.98752 3.62569C1.97701 3.53176 1.98652 3.43668 2.01545 3.34668C2.04437 3.25669 2.09205 3.17382 2.15534 3.10352C2.30419 2.93393 2.51277 2.82808 2.73777 2.80795H5.32414C5.50397 2.80843 5.67764 2.87334 5.81353 2.99088C5.94942 3.10843 6.03849 3.27077 6.06452 3.44835Z" fill="#E93D07"/>
<path d="M12.274 2.57265e-05H12.1654C11.9229 -0.00172262 11.6882 0.085695 11.5062 0.245602C11.3241 0.40551 11.2074 0.626715 11.1783 0.867021C11.1499 1.12464 11.2244 1.38304 11.3856 1.58623C11.4658 1.6921 11.5666 1.78071 11.6819 1.84673C11.7973 1.91276 11.9248 1.95485 12.0569 1.97047C13.594 2.13279 15.029 2.81581 16.1229 3.90575C17.2168 4.9957 17.9035 6.42677 18.0687 7.96062C18.0978 8.20092 18.2145 8.42213 18.3966 8.58203C18.5787 8.74194 18.8133 8.82936 19.0559 8.82761H19.1645C19.4213 8.79785 19.6563 8.66867 19.8187 8.46785C19.9812 8.26703 20.0582 8.01061 20.0332 7.75372C19.8286 5.76862 18.9456 3.9143 17.5326 2.50232C16.1196 1.09034 14.2628 0.206755 12.274 2.57265e-05Z" fill="#E93D07"/>
<path d="M14.6231 8.0197C14.6693 8.24559 14.7933 8.44817 14.9737 8.59218C15.1541 8.7362 15.3794 8.81252 15.6103 8.80787H15.7979C16.0515 8.75663 16.2748 8.60804 16.4198 8.39408C16.5627 8.17971 16.6158 7.91801 16.5678 7.66502C16.3722 6.6224 15.8647 5.66336 15.1123 4.91418C14.3599 4.165 13.3978 3.6608 12.3526 3.46797H12.1651C11.9341 3.46333 11.7089 3.53965 11.5285 3.68367C11.3481 3.82768 11.2241 4.03026 11.1779 4.25615C11.1313 4.50928 11.1857 4.77057 11.3296 4.98415C11.4735 5.19773 11.6954 5.34663 11.9479 5.39901C12.6061 5.5169 13.2134 5.83001 13.6906 6.2975C14.1678 6.76498 14.4928 7.36514 14.6231 8.0197Z" fill="#E93D07"/>
</svg>
