<svg width="19" height="23" viewBox="0 0 19 23" fill="none" xmlns="http://www.w3.org/2000/svg">
<path d="M9.50488 0C6.98482 0.00260758 4.56872 1.01424 2.78677 2.8129C1.00482 4.61156 0.00258335 7.05032 0 9.594C0 16.7452 8.57781 22.5764 8.94864 22.8227C9.11181 22.9377 9.30589 22.9995 9.50488 23C9.70387 22.9995 9.89795 22.9377 10.0611 22.8227C10.4222 22.5764 19 16.7353 19 9.594C19 7.05122 17.9999 4.61244 16.2195 2.8135C14.4391 1.01456 12.024 0.00261066 9.50488 0V0ZM16.9995 9.594C16.9995 14.7259 11.2322 19.4441 9.53416 20.7739C7.80688 19.4441 2.00051 14.7752 2.00051 9.594C1.96416 8.57695 2.13123 7.56293 2.49174 6.61249C2.85225 5.66205 3.39882 4.79469 4.0988 4.0622C4.79878 3.3297 5.63782 2.7471 6.56581 2.34917C7.49381 1.95125 8.49174 1.74616 9.5 1.74616C10.5083 1.74616 11.5062 1.95125 12.4342 2.34917C13.3622 2.7471 14.2012 3.3297 14.9012 4.0622C15.6012 4.79469 16.1477 5.66205 16.5083 6.61249C16.8688 7.56293 17.0358 8.57695 16.9995 9.594Z" fill="#E93D07"/>
<path d="M9.50505 5.7229C8.74654 5.7229 8.00505 5.94994 7.37437 6.3753C6.74369 6.80066 6.25213 7.40524 5.96186 8.11259C5.67158 8.81994 5.59564 9.59829 5.74361 10.3492C5.89159 11.1001 6.25686 11.7899 6.79321 12.3313C7.32956 12.8726 8.01292 13.2413 8.75686 13.3907C9.5008 13.5401 10.2719 13.4634 10.9727 13.1704C11.6735 12.8774 12.2724 12.3813 12.6938 11.7447C13.1153 11.1081 13.3402 10.3596 13.3402 9.59399C13.3402 8.56731 12.9361 7.58269 12.2169 6.85672C11.4977 6.13075 10.5222 5.7229 9.50505 5.7229ZM9.50505 11.4458C9.1422 11.4458 8.7875 11.3372 8.4858 11.1337C8.18409 10.9302 7.94895 10.641 7.81009 10.3027C7.67123 9.96428 7.6349 9.59194 7.70569 9.23272C7.77648 8.8735 7.95121 8.54354 8.20778 8.28456C8.46436 8.02558 8.79126 7.84921 9.14714 7.77775C9.50302 7.7063 9.8719 7.74297 10.2071 7.88313C10.5424 8.02329 10.8289 8.26065 11.0305 8.56518C11.2321 8.86971 11.3397 9.22774 11.3397 9.59399C11.3397 10.0851 11.1464 10.5561 10.8023 10.9034C10.4583 11.2507 9.99163 11.4458 9.50505 11.4458Z" fill="#E93D07"/>
</svg>
