<svg width="22" height="17" viewBox="0 0 22 17" fill="none" xmlns="http://www.w3.org/2000/svg">
<path d="M18.1469 0H2.9035C2.13345 0 1.39493 0.302361 0.850417 0.840566C0.305904 1.37877 0 2.10873 0 2.86987L0 14.1301C0 14.8913 0.305904 15.6212 0.850417 16.1594C1.39493 16.6976 2.13345 17 2.9035 17H18.1469C18.917 17 19.6555 16.6976 20.2 16.1594C20.7445 15.6212 21.0504 14.8913 21.0504 14.1301V2.86987C21.0504 2.10873 20.7445 1.37877 20.2 0.840566C19.6555 0.302361 18.917 0 18.1469 0V0ZM2.01632 3.98593L9.8699 10.194C10.0487 10.3355 10.2709 10.4126 10.5 10.4126C10.7291 10.4126 10.9513 10.3355 11.1301 10.194L18.9837 3.98593V14.1301C18.985 14.2457 18.963 14.3603 18.9189 14.4673C18.8748 14.5743 18.8095 14.6715 18.7268 14.7532C18.6442 14.8349 18.5458 14.8994 18.4376 14.943C18.3293 14.9866 18.2134 15.0084 18.0965 15.007H2.9035C2.78662 15.0084 2.67065 14.9866 2.5624 14.943C2.45415 14.8994 2.35581 14.8349 2.27316 14.7532C2.19051 14.6715 2.12521 14.5743 2.0811 14.4673C2.037 14.3603 2.01497 14.2457 2.01632 14.1301V3.98593ZM18.3284 1.99297L10.5353 8.19109L5.40374 4.20516L2.65146 1.99297C2.73524 1.98414 2.81973 1.98414 2.9035 1.99297H18.1973H18.288H18.3284Z" fill="#E93D07"/>
</svg>
