<svg width="209" height="60" viewBox="0 0 209 60" fill="none" xmlns="http://www.w3.org/2000/svg">
<path d="M29.6715 60C46.0586 60 59.3429 46.5685 59.3429 30C59.3429 13.4315 46.0586 0 29.6715 0C13.2844 0 0 13.4315 0 30C0 46.5685 13.2844 60 29.6715 60Z" fill="#101D23"/>
<path d="M41.978 32.584L41.9545 32.2502C41.9309 32.0119 41.9073 31.7735 41.8602 31.5351C41.8071 30.8977 41.7038 30.2656 41.5513 29.6448C41.4868 29.3275 41.4002 29.0152 41.292 28.7103C41.1417 28.1504 40.9598 27.5996 40.7473 27.0607C39.776 24.6197 38.3566 22.6817 37.1024 20.9582C35.2563 18.4695 33.7898 16.4838 33.7898 13.5399C33.7909 13.2478 33.7117 12.9611 33.5609 12.7119C33.4102 12.4627 33.194 12.2608 32.9363 12.1287C32.6819 11.9876 32.3926 11.9237 32.1032 11.9449C31.8137 11.966 31.5365 12.0712 31.3048 12.2479C29.1502 13.8521 27.3652 15.9097 26.0731 18.2788L26.0024 18.4219C25.8138 18.7794 25.6251 19.1632 25.4577 19.5232C25.4003 19.6462 25.353 19.7737 25.3163 19.9046C24.9787 20.6249 24.7171 21.3791 24.5359 22.1549C24.0931 24.0614 23.8559 26.0108 23.8286 27.9689C22.5271 26.82 22.124 24.4266 22.124 24.3933C22.0909 24.1447 21.9982 23.9081 21.854 23.7041C21.7097 23.5001 21.5183 23.3349 21.2964 23.2228C21.0807 23.1017 20.8388 23.0361 20.5921 23.0319C20.3453 23.0278 20.1014 23.0851 19.8818 23.199C19.5989 23.342 17.161 24.6817 16.0954 29.013C16.0482 29.2038 16.0011 29.4183 15.9539 29.6352C15.8596 30.0643 15.7889 30.5196 15.7181 31.0226C15.7181 31.1179 15.6946 31.2371 15.6946 31.3563C15.637 31.8573 15.6047 32.3609 15.5979 32.8653C15.5602 33.1346 15.5602 33.373 15.5602 33.6376C15.5637 36.0422 16.2083 38.4014 17.4262 40.4669C18.6441 42.5323 20.3901 44.2276 22.4806 45.3743C24.571 46.521 26.9286 47.0767 29.3051 46.983C31.6816 46.8892 33.9891 46.1494 35.9848 44.8414C36.0334 44.8236 36.0748 44.7901 36.1027 44.7461C36.5377 44.4783 36.9494 44.1737 37.3334 43.8355C37.4301 43.7401 37.5244 43.6686 37.6187 43.5732C39.0057 42.3272 40.1154 40.7976 40.8742 39.0857C41.633 37.3737 42.0237 35.5184 42.0205 33.6424C42.0252 33.2538 42.0016 32.9201 41.978 32.584ZM36.1781 42.4672C36.0367 42.5864 35.8716 42.7318 35.7066 42.851C35.487 43.0228 35.2579 43.182 35.0205 43.3277C34.6948 43.5431 34.3544 43.7351 34.002 43.9022C32.3989 44.7608 30.6104 45.2047 28.7962 45.1942C25.7626 45.1936 22.853 43.9767 20.7055 41.8103C18.5579 39.6439 17.3477 36.7048 17.3402 33.6376C17.3363 33.4061 17.3442 33.1746 17.3638 32.9439V32.7055C17.3874 32.2979 17.411 31.9141 17.4345 31.5566C17.4817 31.2443 17.5053 30.9344 17.5784 30.6221C17.5966 30.4129 17.6281 30.2051 17.6727 29.9999C18.3588 26.6984 19.8252 25.3587 20.417 24.9511C20.6292 26.0762 21.577 29.6424 24.4887 30.2884L25.5756 30.5029V29.4016C25.5756 27.6066 25.6723 24.9272 26.2381 22.584C26.407 21.9307 26.6294 21.2928 26.903 20.6769C26.9502 20.5577 27.0209 20.4147 27.068 20.2955C27.2331 19.9117 27.4217 19.5542 27.6127 19.1942C27.6189 19.1942 27.6249 19.1917 27.6293 19.1872C27.6338 19.1828 27.6362 19.1767 27.6362 19.1704C28.7272 17.1374 30.2266 15.3576 32.038 13.9451C32.1559 17.2467 33.8605 19.5685 35.683 22.05C36.6049 23.3182 37.5692 24.634 38.3566 26.1406C38.6293 26.6535 38.874 27.1811 39.0899 27.721C39.3101 28.2571 39.4921 28.8083 39.6345 29.3706C39.7052 29.5875 39.776 29.8259 39.8231 30.0405C39.9923 30.8056 40.1112 31.5813 40.1791 32.3623L40.2027 32.6984C40.2263 33.0083 40.2499 33.2967 40.2499 33.6305C40.2489 35.3144 39.884 36.9777 39.1807 38.5041C38.4773 40.0305 37.4526 41.3831 36.1781 42.4672Z" fill="#C32E18"/>
<path d="M18.1213 18.6031C19.1629 18.6031 20.0074 17.7493 20.0074 16.6961C20.0074 15.6429 19.1629 14.7891 18.1213 14.7891C17.0796 14.7891 16.2351 15.6429 16.2351 16.6961C16.2351 17.7493 17.0796 18.6031 18.1213 18.6031Z" fill="white"/>
<path d="M42.351 47.4156C43.3927 47.4156 44.2371 46.5618 44.2371 45.5086C44.2371 44.4554 43.3927 43.6016 42.351 43.6016C41.3093 43.6016 40.4648 44.4554 40.4648 45.5086C40.4648 46.5618 41.3093 47.4156 42.351 47.4156Z" fill="white"/>
<path d="M41.2919 28.7079C41.4001 29.0128 41.4867 29.3251 41.5512 29.6424C41.7037 30.2632 41.807 30.8953 41.8601 31.5327C46.8772 36.6769 48.9119 41.2943 47.4926 43.4016C46.3137 45.1465 42.6169 45.2681 37.6233 43.5685C36.9723 43.3644 36.3325 43.1257 35.7065 42.8533C32.0952 41.36 28.6594 39.4651 25.4624 37.2038C22.6401 35.2612 20.0023 33.0578 17.583 30.6221C17.0384 30.0714 16.5409 29.547 16.0906 29.0202C12.0825 24.4743 10.5759 20.5005 11.8467 18.634C12.4621 17.7258 13.7635 17.2467 15.5624 17.2467C17.6231 17.2467 20.3438 17.8688 23.4678 19.1132C24.0595 19.3515 24.6749 19.6161 25.3138 19.9022C25.3506 19.7714 25.3979 19.6438 25.4553 19.5208C25.6227 19.1608 25.8113 18.777 25.9999 18.4195C18.71 15.1179 12.5611 14.6388 10.4981 17.7043C8.53419 20.5506 10.7598 25.6948 15.7063 31.0321C16.2485 31.5828 16.7932 32.1573 17.3566 32.7008C19.5943 34.8387 21.9921 36.7985 24.5287 38.5625C27.503 40.6511 30.6737 42.4381 33.9948 43.8974C34.7021 44.2097 35.4094 44.4958 36.1002 44.7365C38.9884 45.8116 41.6149 46.3623 43.7698 46.3623C46.111 46.3623 47.8863 45.7163 48.8341 44.3289C49.3147 43.6003 49.5617 42.7396 49.5414 41.8641C49.5508 38.4004 46.4458 33.4946 41.2919 28.7079Z" fill="white"/>
<path d="M72.7541 38.97C72.9102 39.1372 72.9949 39.3598 72.9899 39.5897C72.9899 39.8405 72.8984 40.0824 72.7329 40.2691C72.5388 40.4798 72.2956 40.638 72.0256 40.7292C71.6997 40.8438 71.3567 40.9002 71.0118 40.8961C70.6994 40.8971 70.3884 40.8546 70.0875 40.7697C69.803 40.693 69.5318 40.5724 69.2836 40.4122L69.5193 39.8162C69.7381 39.9542 69.9767 40.0571 70.2266 40.1213C70.4844 40.1951 70.751 40.2328 71.0188 40.2334C71.3203 40.2475 71.6202 40.1817 71.8888 40.0427C71.9845 39.9955 72.0654 39.9223 72.1224 39.8314C72.1794 39.7405 72.2104 39.6354 72.2118 39.5278C72.2137 39.4336 72.1904 39.3407 72.1443 39.2589C72.0983 39.1771 72.0311 39.1093 71.9501 39.0629C71.7248 38.9452 71.4724 38.8909 71.2192 38.9056H70.4223V38.343H71.1438C71.3797 38.3564 71.6147 38.3036 71.8228 38.1905C71.898 38.1494 71.9608 38.0885 72.0044 38.0142C72.048 37.9398 72.0708 37.8549 72.0704 37.7685C72.0699 37.6726 72.0421 37.5788 71.9903 37.4985C71.9384 37.4181 71.8647 37.3546 71.778 37.3156C71.5326 37.1969 71.2623 37.1404 70.9905 37.1511C70.5255 37.1613 70.0686 37.277 69.6537 37.4896L69.4463 36.8889C69.9483 36.626 70.5053 36.4887 71.0707 36.4884C71.3832 36.4852 71.6941 36.5352 71.9902 36.6362C72.2342 36.7173 72.4545 36.8582 72.6315 37.0462C72.783 37.2125 72.8672 37.4304 72.8673 37.6565C72.8681 37.864 72.7944 38.0648 72.6598 38.2214C72.5084 38.397 72.3141 38.5293 72.0963 38.6052C72.3454 38.6612 72.5735 38.7877 72.7541 38.97Z" fill="#101D23"/>
<path d="M77.0164 36.9483C77.1819 37.1199 77.3095 37.3251 77.3908 37.5503C77.4721 37.7755 77.5052 38.0155 77.4879 38.2546V40.8458H76.7594V40.2761C76.6253 40.4801 76.4352 40.64 76.2124 40.7361C75.9439 40.8465 75.6558 40.9 75.366 40.8935C74.9573 40.9143 74.5541 40.7913 74.2249 40.5454C74.0867 40.4382 73.9758 40.2992 73.9012 40.1401C73.8265 39.9809 73.7904 39.8061 73.7958 39.6301C73.7907 39.4565 73.8247 39.2841 73.8954 39.1259C73.9661 38.9677 74.0715 38.8279 74.2037 38.7171C74.4772 38.4906 74.911 38.3762 75.5028 38.3762H76.7193V38.2236C76.7289 38.0817 76.7079 37.9394 76.6578 37.8065C76.6078 37.6736 76.5298 37.5532 76.4293 37.4537C76.1905 37.2581 75.8871 37.1618 75.5806 37.1843C75.3301 37.1848 75.0815 37.2275 74.845 37.3106C74.6232 37.3844 74.417 37.4992 74.2367 37.6491L73.916 37.0651C74.1489 36.8775 74.4155 36.7375 74.7012 36.6527C75.0153 36.5567 75.342 36.5093 75.6702 36.5121C76.1574 36.4795 76.6387 36.6354 77.0164 36.9483ZM76.2525 40.0973C76.4671 39.9679 76.633 39.77 76.724 39.5347V38.9268H75.5452C74.8945 38.9268 74.5691 39.1477 74.5691 39.5895C74.5634 39.688 74.5819 39.7864 74.6231 39.8758C74.6642 39.9653 74.7267 40.043 74.8049 40.102C75.0087 40.2368 75.2503 40.3012 75.4933 40.2856C75.7594 40.2926 76.0222 40.2249 76.2525 40.0901V40.0973Z" fill="#101D23"/>
<path d="M82.59 39.659C82.5973 39.8288 82.5625 39.9978 82.4888 40.1506C82.4151 40.3034 82.3048 40.4351 82.1679 40.5339C81.792 40.7642 81.3545 40.8709 80.916 40.839H78.8743V36.5482H80.8429C81.2559 36.5231 81.6667 36.6245 82.0218 36.839C82.1569 36.9242 82.2674 37.0441 82.3419 37.1864C82.4164 37.3288 82.4524 37.4885 82.4461 37.6495C82.4513 37.8602 82.3884 38.0669 82.267 38.2383C82.1393 38.411 81.9649 38.5427 81.7648 38.6173C82.0056 38.6565 82.2235 38.7848 82.376 38.9773C82.5285 39.1698 82.6048 39.4128 82.59 39.659ZM79.6264 38.3956H80.7793C81.0136 38.4086 81.2465 38.3513 81.4488 38.2311C81.5258 38.1793 81.5881 38.1081 81.6295 38.0244C81.6708 37.9408 81.6898 37.8477 81.6846 37.7544C81.6846 37.3428 81.386 37.137 80.7887 37.137H79.6358L79.6264 38.3956ZM81.5785 40.0857C81.6564 40.0348 81.7193 39.9637 81.7608 39.8799C81.8022 39.796 81.8207 39.7025 81.8143 39.6089C81.8206 39.5149 81.8036 39.4208 81.7649 39.3351C81.7262 39.2493 81.667 39.1747 81.5927 39.1179C81.3836 38.993 81.1416 38.9364 80.8995 38.9558H79.6193V40.2406H80.8689C81.1142 40.2559 81.359 40.2022 81.5762 40.0857H81.5785Z" fill="#101D23"/>
<path d="M84.4728 40.6006C84.142 40.4214 83.8682 40.1511 83.683 39.8211C83.4973 39.4745 83.4 39.0866 83.4 38.6924C83.4 38.2982 83.4973 37.9102 83.683 37.5637C83.8684 37.235 84.1423 36.9663 84.4728 36.7889C84.8229 36.6027 85.2125 36.5054 85.6081 36.5054C86.0036 36.5054 86.3932 36.6027 86.7433 36.7889C87.072 36.9672 87.3442 37.2357 87.5284 37.5637C87.7156 37.9098 87.8137 38.2979 87.8137 38.6924C87.8137 39.0869 87.7156 39.475 87.5284 39.8211C87.3444 40.1504 87.0722 40.4206 86.7433 40.6006C86.3937 40.7884 86.0039 40.8867 85.6081 40.8867C85.2122 40.8867 84.8224 40.7884 84.4728 40.6006ZM86.3425 40.0166C86.5587 39.8897 86.7352 39.7039 86.8517 39.4802C86.9727 39.2356 87.0357 38.9659 87.0357 38.6924C87.0357 38.4189 86.9727 38.1492 86.8517 37.9045C86.735 37.6823 86.5585 37.498 86.3425 37.373C86.1186 37.2469 85.8654 37.1836 85.6092 37.1894C85.3537 37.1827 85.1011 37.2461 84.8783 37.373C84.661 37.4978 84.4829 37.682 84.3644 37.9045C84.242 38.1487 84.1782 38.4186 84.1782 38.6924C84.1782 38.9661 84.242 39.236 84.3644 39.4802C84.4827 39.7041 84.6608 39.8899 84.8783 40.0166C85.1007 40.1451 85.3531 40.211 85.6092 40.2073C85.8661 40.2107 86.1192 40.1449 86.3425 40.0166Z" fill="#101D23"/>
<path d="M93.2076 40.1597V41.8284H92.4885V40.8343H88.9378V41.8284H88.2117V40.1597H88.4356C88.7068 40.143 88.9072 39.95 88.9968 39.5757C89.1192 39.0574 89.1888 38.5278 89.2043 37.9952L89.2655 36.5459H92.5663V40.1597H93.2076ZM89.7772 39.3969C89.7405 39.6846 89.6123 39.9523 89.4117 40.1597H91.7906V37.2253H89.9493L89.9068 38.0525C89.8949 38.5031 89.8516 38.9524 89.7772 39.3969Z" fill="#101D23"/>
<path d="M100.294 36.5459V40.8367H99.5249V37.2253H97.1342V40.8391H96.3656V36.5483L100.294 36.5459Z" fill="#101D23"/>
<path d="M102.463 40.6006C102.133 40.4212 101.86 40.151 101.676 39.8211C101.489 39.475 101.391 39.0869 101.391 38.6924C101.391 38.2979 101.489 37.9098 101.676 37.5637C101.86 37.2352 102.134 36.9665 102.463 36.7889C102.812 36.5961 103.205 36.4984 103.602 36.5053C103.998 36.498 104.389 36.5958 104.736 36.7889C105.065 36.9667 105.336 37.2354 105.519 37.5637C105.708 37.9093 105.807 38.2976 105.807 38.6924C105.807 39.0872 105.708 39.4755 105.519 39.8211C105.336 40.1508 105.065 40.4211 104.736 40.6006C104.389 40.7945 103.998 40.8931 103.602 40.8867C103.204 40.8928 102.812 40.7943 102.463 40.6006ZM104.333 40.0166C104.55 39.8898 104.727 39.7039 104.845 39.4802C104.964 39.2351 105.026 38.9656 105.026 38.6924C105.026 38.4192 104.964 38.1496 104.845 37.9045C104.727 37.6821 104.55 37.4978 104.333 37.373C104.108 37.2525 103.857 37.1896 103.602 37.1896C103.347 37.1896 103.096 37.2525 102.871 37.373C102.654 37.4978 102.476 37.682 102.357 37.9045C102.233 38.1483 102.169 38.4184 102.169 38.6924C102.169 38.9664 102.233 39.2365 102.357 39.4802C102.476 39.7041 102.654 39.8899 102.871 40.0166C103.095 40.1416 103.346 40.2072 103.602 40.2072C103.858 40.2072 104.109 40.1416 104.333 40.0166Z" fill="#101D23"/>
<path d="M113.004 36.5459V40.8367H112.235V37.2253H109.84V40.8391H109.071V36.5483L113.004 36.5459Z" fill="#101D23"/>
<path d="M117.847 36.7841C118.169 36.9624 118.434 37.2284 118.613 37.5517C118.795 37.9048 118.889 38.2969 118.889 38.6947C118.889 39.0926 118.795 39.4846 118.613 39.8377C118.434 40.1631 118.169 40.4314 117.847 40.6125C117.508 40.7991 117.127 40.8936 116.741 40.8866C116.454 40.8901 116.169 40.8291 115.907 40.7078C115.653 40.5908 115.432 40.4133 115.261 40.1905V42.4075H114.492V36.5457H115.23V37.2251C115.395 36.9913 115.619 36.8062 115.879 36.6888C116.149 36.5645 116.444 36.5019 116.741 36.5052C117.128 36.4986 117.509 36.5948 117.847 36.7841ZM117.411 40.0165C117.628 39.8892 117.806 39.7035 117.925 39.4802C118.049 39.2364 118.114 38.9664 118.114 38.6923C118.114 38.4183 118.049 38.1482 117.925 37.9045C117.806 37.6824 117.628 37.4983 117.411 37.3729C117.187 37.2508 116.937 37.187 116.682 37.187C116.428 37.187 116.178 37.2508 115.954 37.3729C115.738 37.4972 115.56 37.6796 115.44 37.8997C115.311 38.1429 115.247 38.4155 115.254 38.6911C115.249 38.9641 115.312 39.2339 115.438 39.4754C115.555 39.7003 115.733 39.8865 115.952 40.0118C116.175 40.1368 116.426 40.2024 116.681 40.2024C116.937 40.2024 117.188 40.1368 117.411 40.0118V40.0165Z" fill="#101D23"/>
<path d="M120.686 40.6007C120.355 40.4214 120.081 40.1512 119.896 39.8212C119.711 39.4746 119.613 39.0866 119.613 38.6924C119.613 38.2982 119.711 37.9103 119.896 37.5637C120.082 37.235 120.356 36.9664 120.686 36.789C121.035 36.5958 121.427 36.498 121.825 36.5053C122.22 36.4977 122.61 36.5956 122.957 36.789C123.286 36.9666 123.558 37.2353 123.742 37.5637C123.929 37.9098 124.027 38.298 124.027 38.6924C124.027 39.0869 123.929 39.475 123.742 39.8212C123.558 40.1509 123.286 40.4212 122.957 40.6007C122.611 40.7949 122.22 40.8935 121.825 40.8867C121.427 40.8932 121.035 40.7946 120.686 40.6007ZM122.556 40.0166C122.773 39.8898 122.95 39.704 123.067 39.4803C123.187 39.2352 123.249 38.9656 123.249 38.6924C123.249 38.4192 123.187 38.1497 123.067 37.9046C122.95 37.6822 122.772 37.4979 122.556 37.373C122.33 37.2525 122.079 37.1896 121.824 37.1896C121.569 37.1896 121.317 37.2525 121.092 37.373C120.875 37.4986 120.698 37.6827 120.58 37.9046C120.456 38.1483 120.391 38.4184 120.391 38.6924C120.391 38.9665 120.456 39.2365 120.58 39.4803C120.698 39.7035 120.875 39.8892 121.092 40.0166C121.316 40.1416 121.568 40.2072 121.824 40.2072C122.08 40.2072 122.332 40.1416 122.556 40.0166Z" fill="#101D23"/>
<path d="M125.138 36.5459H125.899V39.6758L128.493 36.5459H129.2V40.8367H128.431V37.714L125.838 40.8367H125.13L125.138 36.5459Z" fill="#101D23"/>
<path d="M133.579 38.97C133.657 39.0525 133.718 39.1497 133.758 39.2561C133.799 39.3624 133.818 39.4758 133.815 39.5897C133.815 39.841 133.723 40.0832 133.555 40.2691C133.362 40.4807 133.119 40.639 132.848 40.7292C132.522 40.8438 132.179 40.9002 131.834 40.8961C131.522 40.8971 131.211 40.8546 130.91 40.7697C130.626 40.693 130.354 40.5724 130.106 40.4122L130.342 39.8162C130.561 39.9546 130.799 40.0576 131.049 40.1213C131.307 40.1951 131.574 40.2328 131.841 40.2334C132.143 40.2475 132.443 40.1817 132.711 40.0427C132.807 39.9955 132.888 39.9223 132.945 39.8314C133.002 39.7405 133.033 39.6354 133.034 39.5278C133.036 39.4336 133.013 39.3407 132.967 39.2589C132.921 39.1771 132.854 39.1093 132.773 39.0629C132.547 38.9452 132.295 38.8909 132.042 38.9056H131.266V38.343H131.988C132.224 38.3564 132.459 38.3036 132.667 38.1905C132.74 38.1479 132.8 38.0862 132.842 38.012C132.883 37.9378 132.904 37.8537 132.902 37.7685C132.902 37.6726 132.874 37.5788 132.822 37.4985C132.77 37.4181 132.697 37.3546 132.61 37.3156C132.365 37.1972 132.094 37.1407 131.823 37.1511C131.358 37.1613 130.901 37.277 130.486 37.4896L130.276 36.8889C130.779 36.6266 131.337 36.4894 131.903 36.4884C132.215 36.4852 132.526 36.5352 132.822 36.6362C133.066 36.7173 133.287 36.8582 133.464 37.0462C133.615 37.2125 133.699 37.4304 133.699 37.6565C133.7 37.864 133.626 38.0648 133.492 38.2214C133.34 38.3965 133.146 38.5287 132.928 38.6052C133.175 38.6615 133.401 38.788 133.579 38.97Z" fill="#101D23"/>
<path d="M138.699 39.659C138.707 39.8289 138.673 39.998 138.599 40.1509C138.525 40.3037 138.414 40.4354 138.277 40.5339C137.901 40.7642 137.464 40.8709 137.025 40.839H134.984V36.5482H136.952C137.365 36.5231 137.776 36.6245 138.131 36.839C138.266 36.9242 138.377 37.0441 138.451 37.1864C138.526 37.3288 138.562 37.4885 138.556 37.6495C138.561 37.8602 138.498 38.0669 138.376 38.2383C138.249 38.4094 138.075 38.5394 137.877 38.6125C138.118 38.6523 138.336 38.7815 138.488 38.975C138.64 39.1685 138.715 39.4124 138.699 39.659ZM135.736 38.3956H136.889C137.123 38.4086 137.356 38.3513 137.558 38.2311C137.635 38.1792 137.697 38.1079 137.739 38.0243C137.78 37.9407 137.799 37.8477 137.794 37.7544C137.794 37.342 137.492 37.137 136.896 37.137H135.743L135.736 38.3956ZM137.69 40.0857C137.768 40.0346 137.831 39.9635 137.872 39.8797C137.914 39.7959 137.932 39.7024 137.926 39.6089C137.932 39.5149 137.915 39.4208 137.877 39.3351C137.838 39.2493 137.779 39.1747 137.704 39.1179C137.496 38.9934 137.255 38.9369 137.014 38.9558H135.731V40.2406H136.983C137.228 40.2556 137.473 40.202 137.69 40.0857Z" fill="#101D23"/>
<path d="M140.582 40.6007C140.251 40.4214 139.978 40.1512 139.792 39.8212C139.607 39.4746 139.509 39.0866 139.509 38.6924C139.509 38.2982 139.607 37.9103 139.792 37.5637C139.978 37.235 140.252 36.9664 140.582 36.789C140.931 36.5958 141.323 36.498 141.721 36.5053C142.116 36.4977 142.507 36.5956 142.853 36.789C143.182 36.9666 143.454 37.2353 143.638 37.5637C143.825 37.9098 143.923 38.298 143.923 38.6924C143.923 39.0869 143.825 39.475 143.638 39.8212C143.454 40.1509 143.182 40.4212 142.853 40.6007C142.507 40.7949 142.117 40.8935 141.721 40.8867C141.323 40.8932 140.931 40.7946 140.582 40.6007ZM142.452 40.0166C142.669 39.8898 142.846 39.704 142.963 39.4803C143.083 39.2352 143.145 38.9656 143.145 38.6924C143.145 38.4192 143.083 38.1497 142.963 37.9046C142.846 37.6822 142.669 37.4979 142.452 37.373C142.226 37.2525 141.975 37.1896 141.72 37.1896C141.465 37.1896 141.213 37.2525 140.988 37.373C140.772 37.4986 140.594 37.6827 140.476 37.9046C140.352 38.1483 140.288 38.4184 140.288 38.6924C140.288 38.9665 140.352 39.2365 140.476 39.4803C140.594 39.7035 140.771 39.8892 140.988 40.0166C141.212 40.1416 141.464 40.2072 141.72 40.2072C141.976 40.2072 142.228 40.1416 142.452 40.0166Z" fill="#101D23"/>
<path d="M149.312 40.1597V41.8284H148.605V40.8343H145.068V41.8284H144.34V40.1597H144.576C144.847 40.143 145.035 39.95 145.137 39.5757C145.259 39.0574 145.329 38.5278 145.344 37.9952L145.408 36.5459H148.709V40.1597H149.312ZM145.882 39.3969C145.847 39.6846 145.719 39.9526 145.519 40.1597H147.895V37.2253H146.054L146.011 38.0525C146.001 38.5032 145.957 38.9526 145.882 39.3969Z" fill="#101D23"/>
<path d="M151.007 40.6007C150.675 40.4211 150.399 40.1511 150.21 39.8212C150.022 39.4756 149.923 39.0872 149.923 38.6925C149.923 38.2977 150.022 37.9094 150.21 37.5637C150.399 37.2352 150.675 36.9668 151.007 36.789C151.362 36.595 151.761 36.4973 152.165 36.5053C152.521 36.4994 152.874 36.5812 153.193 36.7437C153.491 36.8929 153.737 37.1298 153.9 37.4231L153.318 37.8021C153.194 37.6082 153.023 37.4504 152.82 37.3444C152.617 37.2401 152.392 37.1878 152.165 37.1919C151.903 37.1858 151.645 37.2491 151.415 37.3754C151.194 37.497 151.011 37.6797 150.889 37.9022C150.76 38.1452 150.695 38.4178 150.701 38.6937C150.696 38.9702 150.76 39.2434 150.889 39.4875C151.009 39.7108 151.189 39.8951 151.408 40.0191C151.638 40.144 151.896 40.208 152.158 40.205C152.385 40.2069 152.609 40.1546 152.813 40.0524C153.016 39.9438 153.187 39.7836 153.311 39.5876L153.893 39.9618C153.731 40.257 153.484 40.4955 153.186 40.646C152.867 40.8096 152.514 40.8914 152.158 40.8844C151.756 40.8912 151.36 40.7935 151.007 40.6007Z" fill="#101D23"/>
<path d="M157.996 37.2253H156.443V40.8391H155.674V37.2253H154.118V36.5459H157.996V37.2253Z" fill="#101D23"/>
<path d="M162.495 39.659C162.503 39.8289 162.469 39.998 162.395 40.1509C162.321 40.3037 162.211 40.4354 162.073 40.5339C161.697 40.7642 161.26 40.8709 160.821 40.839H158.78V36.5482H160.748C161.161 36.5231 161.572 36.6245 161.927 36.839C162.062 36.9242 162.173 37.0441 162.247 37.1864C162.322 37.3288 162.358 37.4885 162.352 37.6495C162.357 37.8602 162.294 38.0669 162.172 38.2383C162.045 38.4094 161.872 38.5394 161.673 38.6125C161.914 38.6523 162.132 38.7815 162.284 38.975C162.436 39.1685 162.511 39.4124 162.495 39.659ZM159.532 38.3956H160.687C160.921 38.4089 161.153 38.3517 161.354 38.2311C161.431 38.1795 161.494 38.1083 161.535 38.0246C161.577 37.9409 161.595 37.8477 161.59 37.7544C161.59 37.3428 161.291 37.137 160.694 37.137H159.539L159.532 38.3956ZM161.486 40.0857C161.564 40.0346 161.627 39.9635 161.668 39.8797C161.71 39.7959 161.728 39.7024 161.722 39.6089C161.728 39.5152 161.712 39.4212 161.673 39.3356C161.635 39.2499 161.577 39.1751 161.503 39.1179C161.294 38.993 161.052 38.9364 160.81 38.9558H159.527V40.2406H160.762C161.017 40.261 161.273 40.2073 161.498 40.0857H161.486Z" fill="#101D23"/>
<path d="M167.484 36.5457L165.425 41.2656C165.302 41.6256 165.085 41.9456 164.798 42.1929C164.541 42.3737 164.232 42.4657 163.919 42.4552C163.714 42.4566 163.509 42.4228 163.315 42.355C163.138 42.2959 162.976 42.1955 162.844 42.0618L163.148 41.4778C163.247 41.5789 163.366 41.659 163.496 41.7134C163.626 41.7679 163.766 41.7955 163.907 41.7948C164.076 41.8026 164.243 41.7503 164.379 41.647C164.532 41.5052 164.65 41.3277 164.72 41.1298L164.855 40.8294L162.969 36.5386H163.77L165.27 39.9808L166.734 36.5457H167.484Z" fill="#101D23"/>
<path d="M70.4793 50.3096C70.1501 50.1283 69.8767 49.8585 69.6895 49.5301C69.5046 49.1828 69.4078 48.7946 69.4078 48.4002C69.4078 48.0058 69.5046 47.6175 69.6895 47.2702C69.8756 46.9421 70.1493 46.6737 70.4793 46.4955C70.8282 46.3027 71.2206 46.2049 71.6181 46.2118C72.0134 46.2043 72.4037 46.3021 72.7498 46.4955C73.079 46.6731 73.3513 46.9418 73.5349 47.2702C73.7221 47.6168 73.8202 48.0053 73.8202 48.4002C73.8202 48.795 73.7221 49.1835 73.5349 49.5301C73.3502 49.8588 73.0782 50.1288 72.7498 50.3096C72.4033 50.5019 72.0133 50.5997 71.6181 50.5932C71.2207 50.5991 70.8286 50.5014 70.4793 50.3096ZM72.349 49.7232C72.5659 49.5964 72.7431 49.4105 72.8606 49.1868C72.98 48.9417 73.0421 48.6722 73.0421 48.399C73.0421 48.1258 72.98 47.8562 72.8606 47.6111C72.7431 47.3887 72.5657 47.2044 72.349 47.0795C72.1234 46.9591 71.8721 46.8961 71.6169 46.8961C71.3618 46.8961 71.1105 46.9591 70.8849 47.0795C70.6687 47.2051 70.4915 47.3892 70.3733 47.6111C70.2494 47.8548 70.1847 48.1249 70.1847 48.399C70.1847 48.673 70.2494 48.9431 70.3733 49.1868C70.4913 49.4101 70.6685 49.5958 70.8849 49.7232C71.1091 49.8482 71.3609 49.9137 71.6169 49.9137C71.8729 49.9137 72.1248 49.8482 72.349 49.7232Z" fill="#101D23"/>
<path d="M78.056 46.9321H75.6983V50.5364H74.9297V46.2456H78.0536L78.056 46.9321Z" fill="#101D23"/>
<path d="M78.8344 46.2456H79.603V48.0692H82.0219V46.2456H82.7906V50.5364H82.0219V48.7414H79.603V50.5364H78.8344V46.2456Z" fill="#101D23"/>
<path d="M88.1136 48.66H84.669C84.6878 48.8374 84.7413 49.0092 84.8262 49.1655C84.9112 49.3218 85.0261 49.4595 85.1642 49.5706C85.462 49.8049 85.8315 49.9263 86.2086 49.9139C86.4375 49.9225 86.6654 49.8807 86.8767 49.7913C87.088 49.702 87.2776 49.5673 87.4322 49.3966L87.8566 49.8972C87.6655 50.1246 87.4228 50.3021 87.1493 50.4145C86.8461 50.5381 86.5214 50.5989 86.1945 50.5932C85.7792 50.6027 85.3683 50.5068 84.9991 50.3143C84.6627 50.137 84.3831 49.8667 84.1928 49.5348C84.0093 49.1871 83.9133 48.799 83.9133 48.4049C83.9133 48.0108 84.0093 47.6227 84.1928 47.275C84.367 46.9472 84.6304 46.6767 84.952 46.4955C85.2846 46.3028 85.6626 46.2047 86.0459 46.2118C86.4271 46.2042 86.803 46.3023 87.1328 46.4955C87.4505 46.677 87.7093 46.9478 87.8779 47.275C88.0613 47.6292 88.1537 48.0243 88.1466 48.424C88.1401 48.5032 88.1291 48.582 88.1136 48.66ZM85.1123 47.2106C84.8614 47.442 84.7057 47.7602 84.6761 48.1022H87.3992C87.3689 47.7604 87.2134 47.4424 86.9631 47.2106C86.7039 46.9904 86.3762 46.8696 86.0377 46.8696C85.6991 46.8696 85.3714 46.9904 85.1123 47.2106Z" fill="#101D23"/>
<path d="M90.0158 50.3096C89.6835 50.1299 89.4075 49.8599 89.2189 49.5301C89.0287 49.1846 88.929 48.7956 88.929 48.4002C88.929 48.0048 89.0287 47.6159 89.2189 47.2703C89.4063 46.9407 89.6827 46.672 90.0158 46.4956C90.3701 46.3016 90.7682 46.2038 91.1711 46.2119C91.5285 46.206 91.882 46.2878 92.2014 46.4503C92.4995 46.5995 92.746 46.8363 92.9087 47.1296L92.324 47.5087C92.2006 47.3147 92.0291 47.1569 91.8265 47.051C91.6236 46.9467 91.3986 46.8943 91.1711 46.8984C90.9103 46.8925 90.6527 46.9558 90.4237 47.082C90.2032 47.2051 90.0224 47.3896 89.9026 47.6136C89.7733 47.8565 89.7083 48.1291 89.714 48.405C89.709 48.6815 89.7739 48.9547 89.9026 49.1988C90.0217 49.4232 90.2028 49.6079 90.4237 49.7304C90.6533 49.855 90.9104 49.919 91.1711 49.9163C91.3984 49.9182 91.6229 49.8659 91.8265 49.7637C92.0294 49.6551 92.2009 49.4949 92.324 49.2989L92.9087 49.6731C92.7457 49.9674 92.4994 50.2057 92.2014 50.3573C91.8824 50.5209 91.5286 50.6027 91.1711 50.5957C90.7681 50.6017 90.3704 50.5032 90.0158 50.3096Z" fill="#101D23"/>
<path d="M97.005 46.9321H95.4489V50.5364H94.6803V46.9321H93.1266V46.2456H97.005V46.9321Z" fill="#101D23"/>
<path d="M98.2856 50.3095C97.9563 50.1283 97.683 49.8585 97.4958 49.53C97.3109 49.1828 97.2141 48.7945 97.2141 48.4001C97.2141 48.0057 97.3109 47.6175 97.4958 47.2702C97.6819 46.9421 97.9556 46.6736 98.2856 46.4955C98.6344 46.3027 99.0269 46.2049 99.4244 46.2118C99.8204 46.2045 100.211 46.3023 100.558 46.4955C100.886 46.6739 101.158 46.9425 101.341 47.2702C101.53 47.6163 101.629 48.005 101.629 48.4001C101.629 48.7953 101.53 49.184 101.341 49.53C101.157 49.8581 100.886 50.128 100.558 50.3095C100.211 50.5016 99.8203 50.5993 99.4244 50.5932C99.027 50.599 98.6348 50.5014 98.2856 50.3095ZM100.155 49.7231C100.372 49.5963 100.549 49.4105 100.667 49.1868C100.786 48.9417 100.848 48.6721 100.848 48.3989C100.848 48.1257 100.786 47.8562 100.667 47.6111C100.549 47.3887 100.372 47.2044 100.155 47.0795C99.9301 46.9591 99.6792 46.8961 99.4244 46.8961C99.1696 46.8961 98.9187 46.9591 98.6935 47.0795C98.4762 47.2043 98.298 47.3886 98.1795 47.6111C98.0556 47.8548 97.991 48.1249 97.991 48.3989C97.991 48.673 98.0556 48.9431 98.1795 49.1868C98.2978 49.4107 98.4759 49.5965 98.6935 49.7231C98.9173 49.8481 99.1687 49.9137 99.4244 49.9137C99.68 49.9137 99.9315 49.8481 100.155 49.7231Z" fill="#101D23"/>
<path d="M102.736 46.2452H103.5V49.3751L106.093 46.2452H106.801V50.536H106.032V47.4133L103.439 50.536H102.731L102.736 46.2452ZM103.802 45.4037C103.689 45.2981 103.601 45.1689 103.543 45.0252C103.485 44.8815 103.459 44.7267 103.467 44.5718H103.988C103.986 44.6612 104.004 44.7499 104.039 44.8321C104.074 44.9143 104.125 44.988 104.191 45.0485C104.335 45.1759 104.523 45.2417 104.714 45.2321C104.907 45.2412 105.096 45.1756 105.242 45.0485C105.308 44.9886 105.361 44.9151 105.397 44.8329C105.433 44.7506 105.451 44.6616 105.45 44.5718H105.987C105.994 44.7275 105.967 44.8829 105.907 45.0268C105.848 45.1706 105.758 45.2993 105.643 45.4037C105.379 45.6054 105.053 45.7059 104.723 45.6874C104.393 45.7098 104.066 45.6117 103.802 45.4109V45.4037Z" fill="#101D23"/>
<path d="M109.943 48.7343H109.064V50.5364H108.295V46.2456H109.064V48.0644H109.962L111.337 46.2456H112.162L110.554 48.31L112.275 50.5388H111.37L109.943 48.7343Z" fill="#101D23"/>
<path d="M113.081 46.2456H113.85V49.3755L116.443 46.2456H117.151V50.5364H116.382V47.4137L113.789 50.5364H113.081V46.2456Z" fill="#101D23"/>
<path d="M121.292 50.5364L120.066 48.894L118.826 50.5364H117.97L119.642 48.341L118.048 46.2456H118.904L120.083 47.7951L121.245 46.2456H122.087L120.486 48.3433L122.176 50.5388L121.292 50.5364Z" fill="#101D23"/>
<path d="M129.063 46.2456V50.5364H128.295V46.9321H125.899V50.5364H125.13V46.2456H129.063Z" fill="#101D23"/>
<path d="M133.414 46.6486C133.579 46.8205 133.707 47.0257 133.788 47.2508C133.869 47.4759 133.902 47.7158 133.886 47.9549V50.5365H133.155V49.9668C133.022 50.1717 132.831 50.3319 132.608 50.4269C132.339 50.5372 132.051 50.5907 131.761 50.5842C131.353 50.6042 130.95 50.4813 130.62 50.2362C130.483 50.1284 130.372 49.9893 130.298 49.8302C130.224 49.6711 130.188 49.4966 130.193 49.3208C130.189 49.1473 130.223 48.9749 130.293 48.8167C130.364 48.6586 130.469 48.5187 130.601 48.4078C130.875 48.1694 131.309 48.0669 131.9 48.0669H133.117V47.9143C133.127 47.7724 133.106 47.6301 133.056 47.4972C133.005 47.3643 132.927 47.2439 132.827 47.1444C132.588 46.949 132.285 46.8528 131.978 46.875C131.727 46.8757 131.478 46.9184 131.24 47.0014C131.019 47.0754 130.814 47.1902 130.634 47.3398L130.314 46.7558C130.546 46.5678 130.813 46.4277 131.099 46.3434C131.413 46.2474 131.74 46.2 132.068 46.2028C132.556 46.1728 133.038 46.3323 133.414 46.6486ZM132.65 49.7975C132.865 49.6682 133.031 49.4702 133.122 49.235V48.6295H131.943C131.292 48.6295 130.967 48.8504 130.967 49.2922C130.962 49.3917 130.983 49.4908 131.026 49.5803C131.069 49.6699 131.134 49.747 131.214 49.8047C131.417 49.9396 131.658 50.0041 131.9 49.9882C132.163 49.9946 132.422 49.9286 132.65 49.7975Z" fill="#101D23"/>
<path d="M135.267 46.2456H136.038V48.0692H138.46V46.2456H139.226V50.5364H138.46V48.7414H136.038V50.5364H135.27L135.267 46.2456Z" fill="#101D23"/>
<path d="M144.544 48.66H141.099C141.118 48.8373 141.172 49.0092 141.257 49.1655C141.342 49.3218 141.457 49.4595 141.595 49.5706C141.892 49.8048 142.262 49.9263 142.639 49.9138C142.868 49.9224 143.096 49.8806 143.307 49.7913C143.518 49.702 143.708 49.5673 143.863 49.3965L144.287 49.8971C144.096 50.1246 143.853 50.3021 143.58 50.4144C143.277 50.5382 142.952 50.599 142.625 50.5932C142.21 50.6024 141.799 50.5065 141.43 50.3143C141.093 50.137 140.814 49.8667 140.623 49.5348C140.44 49.1871 140.344 48.799 140.344 48.4049C140.344 48.0108 140.44 47.6227 140.623 47.275C140.798 46.9471 141.063 46.6766 141.385 46.4955C141.717 46.3027 142.095 46.2047 142.479 46.2118C142.859 46.2045 143.234 46.3026 143.563 46.4955C143.881 46.677 144.14 46.9477 144.308 47.275C144.492 47.6291 144.584 48.0242 144.577 48.424C144.571 48.5032 144.56 48.582 144.544 48.66ZM141.536 47.2106C141.286 47.4427 141.13 47.7605 141.099 48.1021H143.82C143.79 47.7604 143.634 47.4424 143.384 47.2106C143.125 46.9904 142.797 46.8696 142.459 46.8696C142.12 46.8696 141.792 46.9904 141.533 47.2106H141.536Z" fill="#101D23"/>
<path d="M149.327 46.2456V50.5364H148.559V46.9321H146.731L146.682 47.8857C146.666 48.3702 146.616 48.853 146.531 49.3302C146.477 49.6632 146.351 49.9799 146.161 50.2575C146.08 50.3697 145.974 50.46 145.85 50.5203C145.727 50.5806 145.591 50.6091 145.454 50.6032C145.294 50.6025 145.135 50.5785 144.982 50.5317L145.032 49.8785C145.094 49.8938 145.158 49.9026 145.223 49.9047C145.32 49.9062 145.415 49.8803 145.499 49.8297C145.582 49.7792 145.65 49.7061 145.694 49.6187C145.807 49.41 145.878 49.1807 145.902 48.9441C145.932 48.6866 145.965 48.3195 145.991 47.8332L146.064 46.248L149.327 46.2456Z" fill="#101D23"/>
<path d="M154.634 48.66H151.189C151.208 48.8371 151.261 49.0087 151.346 49.1649C151.43 49.3212 151.545 49.459 151.682 49.5706C151.98 49.8041 152.349 49.9255 152.726 49.9139C152.956 49.9227 153.184 49.881 153.396 49.7916C153.607 49.7023 153.797 49.5675 153.952 49.3966L154.377 49.8972C154.186 50.1246 153.943 50.3021 153.669 50.4145C153.37 50.5365 153.049 50.5973 152.726 50.5932C152.31 50.6024 151.899 50.5066 151.529 50.3143C151.193 50.1363 150.915 49.8661 150.725 49.5348C150.541 49.1871 150.445 48.799 150.445 48.4049C150.445 48.0108 150.541 47.6227 150.725 47.275C150.899 46.9472 151.162 46.6767 151.484 46.4955C151.817 46.3028 152.195 46.2047 152.578 46.2118C152.959 46.2042 153.335 46.3023 153.665 46.4955C153.982 46.677 154.241 46.9478 154.41 47.275C154.593 47.6292 154.686 48.0243 154.679 48.424C154.668 48.5035 154.653 48.5823 154.634 48.66ZM151.625 47.2106C151.375 47.442 151.219 47.7602 151.189 48.1022H153.912C153.881 47.7606 153.726 47.443 153.476 47.2106C153.217 46.9904 152.889 46.8696 152.551 46.8696C152.212 46.8696 151.885 46.9904 151.625 47.2106Z" fill="#101D23"/>
<path d="M155.841 46.2458H156.609V49.3757L159.203 46.2458H159.91V50.5366H159.141V47.4139L156.548 50.5366H155.841V46.2458ZM156.906 45.4043C156.795 45.2991 156.707 45.1706 156.649 45.0278C156.591 44.8851 156.565 44.7313 156.571 44.5771H157.093C157.092 44.6665 157.109 44.755 157.144 44.8371C157.179 44.9192 157.231 44.993 157.295 45.0539C157.44 45.1813 157.627 45.2471 157.819 45.2375C158.012 45.2462 158.202 45.1807 158.349 45.0539C158.415 44.994 158.468 44.9205 158.504 44.8383C158.54 44.756 158.558 44.667 158.557 44.5771H159.092C159.099 44.7327 159.072 44.8881 159.013 45.0319C158.954 45.1758 158.864 45.3046 158.75 45.4091C158.486 45.6104 158.16 45.7109 157.83 45.6928C157.5 45.7142 157.172 45.6144 156.909 45.4115L156.906 45.4043Z" fill="#101D23"/>
<path d="M73.3715 28.4294L78.6221 11.2041H85.6763V29.2327H82.0454V11.9979L76.7878 29.2303H69.7289V11.2041H73.3715V28.4294Z" fill="#C32E18"/>
<path d="M92.7169 29.2303H89.0742V11.2041H92.7169V18.5939H100.969V11.2041H104.614V29.2327H100.971V21.843H92.7192L92.7169 29.2303Z" fill="#C32E18"/>
<path d="M115.997 29.2303H112.34V14.4723H106.889V11.2041H121.462V14.4723H115.997V29.2303Z" fill="#C32E18"/>
<path d="M135.605 29.2303H123.734V11.2041H135.605V14.4723H127.376V18.5939H135.35V21.8358H127.376V25.9598H135.605V29.2303Z" fill="#C32E18"/>
<path d="M142.341 29.2303H138.696V11.2041H146.241C148.205 11.2041 149.786 11.7699 150.982 12.9014C151.568 13.4519 152.032 14.1226 152.342 14.8687C152.652 15.6148 152.801 16.4191 152.778 17.2279C152.778 18.9824 152.191 20.3984 150.996 21.5045C149.801 22.6105 148.193 23.1731 146.229 23.1731H142.341V29.2303ZM142.341 14.4723V19.9073H146.236C147.886 19.9073 149.016 18.7703 149.016 17.2017C149.016 15.6332 147.893 14.4723 146.236 14.4723H142.341Z" fill="#C32E18"/>
<path d="M158.747 29.2303H155.102V11.2041H170.644V29.2327H167.002V14.4723H158.75L158.747 29.2303Z" fill="#101D23"/>
<path d="M191.263 29.2303H187.366L186.093 25.3185H177.711L176.462 29.2303H172.767L178.779 11.2041H185.251L191.263 29.2303ZM181.915 12.2816L178.756 22.0551H185.048L181.915 12.2816Z" fill="#101D23"/>
<path d="M197.032 29.2303H193.387V11.2041H197.032V18.5939H205.284V11.2041H208.927V29.2327H205.287V21.843H197.035L197.032 29.2303Z" fill="#101D23"/>
</svg>
