<svg width="255" height="155" viewBox="0 0 255 155" fill="none" xmlns="http://www.w3.org/2000/svg">
<path d="M15.6224 0C11.4832 0.0134643 7.51743 1.66146 4.59058 4.58429C1.66374 7.50713 0.0134827 11.4675 0 15.601L0 101.425C0.0135135 105.556 1.66459 109.513 4.59216 112.432C7.51973 115.351 11.4856 116.993 15.6224 117H115.834H216.045L241.869 151.292C245.244 155.785 254.321 156.398 254.5 147.232V15.601C254.493 11.4698 252.849 7.50943 249.926 4.58587C247.003 1.66231 243.04 0.013495 238.903 0H15.6224Z" fill="#101D23"/>
<path d="M39.07 49.42C36.85 49.42 34.85 48.95 33.07 48.01C31.31 47.07 29.92 45.77 28.9 44.11C27.9 42.45 27.4 40.58 27.4 38.5C27.4 36.42 27.9 34.55 28.9 32.89C29.92 31.23 31.31 29.93 33.07 28.99C34.85 28.05 36.85 27.58 39.07 27.58C41.29 27.58 43.28 28.05 45.04 28.99C46.82 29.93 48.21 31.23 49.21 32.89C50.23 34.55 50.74 36.42 50.74 38.5C50.74 40.58 50.23 42.45 49.21 44.11C48.21 45.77 46.82 47.07 45.04 48.01C43.28 48.95 41.29 49.42 39.07 49.42ZM39.07 44.5C40.13 44.5 41.09 44.25 41.95 43.75C42.81 43.25 43.49 42.55 43.99 41.65C44.49 40.73 44.74 39.68 44.74 38.5C44.74 37.32 44.49 36.28 43.99 35.38C43.49 34.46 42.81 33.75 41.95 33.25C41.09 32.75 40.13 32.5 39.07 32.5C38.01 32.5 37.05 32.75 36.19 33.25C35.33 33.75 34.65 34.46 34.15 35.38C33.65 36.28 33.4 37.32 33.4 38.5C33.4 39.68 33.65 40.73 34.15 41.65C34.65 42.55 35.33 43.25 36.19 43.75C37.05 44.25 38.01 44.5 39.07 44.5ZM54.916 28H72.466V32.59H60.766V35.98H66.196C68.736 35.98 70.686 36.52 72.046 37.6C73.406 38.68 74.086 40.23 74.086 42.25C74.086 44.37 73.326 46.03 71.806 47.23C70.286 48.41 68.156 49 65.416 49H54.916V28ZM65.026 44.74C66.026 44.74 66.786 44.54 67.306 44.14C67.826 43.74 68.086 43.17 68.086 42.43C68.086 40.95 67.066 40.21 65.026 40.21H60.766V44.74H65.026ZM87.7523 28C89.6523 28 91.3023 28.32 92.7023 28.96C94.1023 29.58 95.1823 30.48 95.9423 31.66C96.7023 32.82 97.0823 34.19 97.0823 35.77C97.0823 37.35 96.7023 38.72 95.9423 39.88C95.1823 41.04 94.1023 41.94 92.7023 42.58C91.3023 43.2 89.6523 43.51 87.7523 43.51H84.0923V49H78.1523V28H87.7523ZM87.3923 38.83C88.6123 38.83 89.5323 38.57 90.1523 38.05C90.7723 37.51 91.0823 36.75 91.0823 35.77C91.0823 34.79 90.7723 34.03 90.1523 33.49C89.5323 32.95 88.6123 32.68 87.3923 32.68H84.0923V38.83H87.3923ZM114.209 44.92H105.329L103.679 49H97.6188L106.889 28H112.739L122.039 49H115.859L114.209 44.92ZM112.469 40.54L109.769 33.82L107.069 40.54H112.469ZM141.311 32.71H134.891V49H129.041V32.71H122.591V28H141.311V32.71ZM145.049 28H150.899V40.33L159.569 28H165.149V49H159.299V36.7L150.659 49H145.049V28ZM187.578 32.71H181.158V49H175.308V32.71H168.858V28H187.578V32.71ZM208.176 44.41V49H191.316V28H207.786V32.59H197.196V36.13H206.526V40.57H197.196V44.41H208.176ZM44.05 76.02C45.29 76.42 46.23 77.04 46.87 77.88C47.53 78.72 47.86 79.76 47.86 81C47.86 82.86 47.13 84.33 45.67 85.41C44.23 86.47 42.18 87 39.52 87H28.75V66H38.95C41.47 66 43.42 66.48 44.8 67.44C46.2 68.38 46.9 69.72 46.9 71.46C46.9 72.48 46.65 73.38 46.15 74.16C45.67 74.94 44.97 75.56 44.05 76.02ZM34.6 74.4H38.38C40.06 74.4 40.9 73.71 40.9 72.33C40.9 70.95 40.06 70.26 38.38 70.26H34.6V74.4ZM39.28 82.74C41 82.74 41.86 82.01 41.86 80.55C41.86 79.13 41 78.42 39.28 78.42H34.6V82.74H39.28ZM72.0542 66V87H66.1142V78.81H58.0142V87H52.0742V66H58.0142V73.89H66.1142V66H72.0542ZM77.5664 66H83.4164V78.33L92.0864 66H97.6664V87H91.8164V74.7L83.1764 87H77.5664V66ZM122.106 87L122.076 75.87L116.676 84.93H114.036L108.636 76.11V87H103.176V66H108.066L115.446 78.12L122.646 66H127.536L127.596 87H122.106ZM147.553 82.92H138.673L137.023 87H130.963L140.233 66H146.083L155.383 87H149.203L147.553 82.92ZM145.812 78.54L143.113 71.82L140.413 78.54H145.812ZM178.769 66V87H172.829V78.81H164.729V87H158.789V66H164.729V73.89H172.829V66H178.769ZM184.281 66H190.131V78.33L198.801 66H204.381V87H198.531V74.7L189.891 87H184.281V66ZM226.751 82.41V87H209.891V66H226.361V70.59H215.771V74.13H225.101V78.57H215.771V82.41H226.751Z" fill="white"/>
</svg>
