<svg width="18" height="18" viewBox="0 0 18 18" fill="none" xmlns="http://www.w3.org/2000/svg">
<path d="M0 9C0 4.02944 4.02944 0 9 0C13.9706 0 18 4.02944 18 9C18 13.9706 13.9706 18 9 18C4.02944 18 0 13.9706 0 9Z" fill="#FF0000"/>
<path d="M13.5996 6.77741C13.4892 6.35328 13.1639 6.0193 12.7508 5.90595C12.0022 5.69995 9.0002 5.69995 9.0002 5.69995C9.0002 5.69995 5.99818 5.69995 5.24954 5.90595C4.83647 6.0193 4.51116 6.35328 4.40076 6.77741C4.2002 7.54609 4.2002 9.14995 4.2002 9.14995C4.2002 9.14995 4.2002 10.7538 4.40076 11.5225C4.51116 11.9466 4.83647 12.2806 5.24954 12.394C5.99818 12.6 9.0002 12.6 9.0002 12.6C9.0002 12.6 12.0022 12.6 12.7508 12.394C13.1639 12.2806 13.4892 11.9466 13.5996 11.5225C13.8002 10.7538 13.8002 9.14995 13.8002 9.14995C13.8002 9.14995 13.8002 7.54609 13.5996 6.77741Z" fill="white"/>
<path d="M8.09961 10.8V7.80005L10.4996 9.30011L8.09961 10.8Z" fill="#FF0000"/>
</svg>
